<svg xmlns="http://www.w3.org/2000/svg" version="1.1" xmlns:xlink="http://www.w3.org/1999/xlink" width="510" height="512"><svg width="510" height="512" viewBox="0 0 510 512" fill="none" xmlns="http://www.w3.org/2000/svg">
<path d="M46.6 344.01C23.6846 329.787 16.1797 299.952 29.6377 276.579L164.267 42.7634C177.918 19.0552 208.088 10.7199 231.974 24.0575L458.128 150.34C481.731 163.52 490.584 193.073 478.114 217.059L347.827 467.659C334.398 493.488 301.83 502.429 277.096 487.077L46.6 344.01Z" fill="#001996"></path>
<path d="M47.3712 170.317C41.2303 145.001 55.5554 119.212 80.2932 111.048L323.593 30.7593C351.072 21.6914 380.487 37.7708 387.689 65.7962L454.354 325.217C460.676 349.821 447.545 375.255 423.825 384.348L179.988 477.828C151.836 488.621 120.607 472.228 113.499 442.928L47.3712 170.317Z" fill="#001996"></path>
<path d="M145.989 277.14C132.904 223.225 161.052 167.544 212.356 146.425V146.425C275.478 120.442 347.092 156.638 364.082 222.75V222.75C378.294 278.055 348.851 335.514 295.533 355.955V355.955C232.256 380.213 161.971 342.997 145.989 277.14V277.14Z" fill="#010F55"></path>
</svg><style>@media (prefers-color-scheme: light) { :root { filter: none; } }
@media (prefers-color-scheme: dark) { :root { filter: none; } }
</style></svg>